<mxfile host="app.diagrams.net" modified="2023-11-07T15:03:18.433Z" agent="Mozilla/5.0 (Windows NT 10.0; Win64; x64) AppleWebKit/537.36 (KHTML, like Gecko) Chrome/119.0.0.0 Safari/537.36 Edg/119.0.0.0" etag="-yriXGkMuiJOFjYReG97" version="22.0.8" type="github">
  <diagram id="R2lEEEUBdFMjLlhIrx00" name="Page-1">
    <mxGraphModel dx="2725" dy="1983" grid="1" gridSize="10" guides="1" tooltips="1" connect="1" arrows="1" fold="1" page="1" pageScale="1" pageWidth="850" pageHeight="1100" math="0" shadow="0" extFonts="Permanent Marker^https://fonts.googleapis.com/css?family=Permanent+Marker">
      <root>
        <mxCell id="0" />
        <mxCell id="1" parent="0" />
        <mxCell id="s2jjjpNIOZmyM_kjLNcq-11" style="rounded=0;orthogonalLoop=1;jettySize=auto;html=1;entryX=0.5;entryY=1;entryDx=0;entryDy=0;" edge="1" parent="1" source="s2jjjpNIOZmyM_kjLNcq-1" target="s2jjjpNIOZmyM_kjLNcq-7">
          <mxGeometry relative="1" as="geometry" />
        </mxCell>
        <mxCell id="s2jjjpNIOZmyM_kjLNcq-12" style="rounded=0;orthogonalLoop=1;jettySize=auto;html=1;entryX=1;entryY=0.5;entryDx=0;entryDy=0;" edge="1" parent="1" source="s2jjjpNIOZmyM_kjLNcq-1" target="s2jjjpNIOZmyM_kjLNcq-3">
          <mxGeometry relative="1" as="geometry" />
        </mxCell>
        <mxCell id="s2jjjpNIOZmyM_kjLNcq-13" style="rounded=0;orthogonalLoop=1;jettySize=auto;html=1;entryX=1;entryY=0.5;entryDx=0;entryDy=0;" edge="1" parent="1" source="s2jjjpNIOZmyM_kjLNcq-1" target="s2jjjpNIOZmyM_kjLNcq-2">
          <mxGeometry relative="1" as="geometry" />
        </mxCell>
        <mxCell id="s2jjjpNIOZmyM_kjLNcq-14" style="rounded=0;orthogonalLoop=1;jettySize=auto;html=1;" edge="1" parent="1" source="s2jjjpNIOZmyM_kjLNcq-1" target="s2jjjpNIOZmyM_kjLNcq-6">
          <mxGeometry relative="1" as="geometry" />
        </mxCell>
        <mxCell id="s2jjjpNIOZmyM_kjLNcq-15" style="rounded=0;orthogonalLoop=1;jettySize=auto;html=1;" edge="1" parent="1" source="s2jjjpNIOZmyM_kjLNcq-1" target="s2jjjpNIOZmyM_kjLNcq-5">
          <mxGeometry relative="1" as="geometry" />
        </mxCell>
        <mxCell id="s2jjjpNIOZmyM_kjLNcq-16" style="rounded=0;orthogonalLoop=1;jettySize=auto;html=1;entryX=0;entryY=0.5;entryDx=0;entryDy=0;" edge="1" parent="1" source="s2jjjpNIOZmyM_kjLNcq-1" target="s2jjjpNIOZmyM_kjLNcq-9">
          <mxGeometry relative="1" as="geometry" />
        </mxCell>
        <mxCell id="s2jjjpNIOZmyM_kjLNcq-18" style="rounded=0;orthogonalLoop=1;jettySize=auto;html=1;entryX=0;entryY=0.5;entryDx=0;entryDy=0;" edge="1" parent="1" source="s2jjjpNIOZmyM_kjLNcq-1" target="s2jjjpNIOZmyM_kjLNcq-10">
          <mxGeometry relative="1" as="geometry" />
        </mxCell>
        <mxCell id="s2jjjpNIOZmyM_kjLNcq-1" value="奶牛" style="ellipse;whiteSpace=wrap;html=1;" vertex="1" parent="1">
          <mxGeometry x="440" y="420" width="120" height="80" as="geometry" />
        </mxCell>
        <mxCell id="s2jjjpNIOZmyM_kjLNcq-2" value="编号" style="rounded=0;whiteSpace=wrap;html=1;" vertex="1" parent="1">
          <mxGeometry x="220" y="260" width="120" height="60" as="geometry" />
        </mxCell>
        <mxCell id="s2jjjpNIOZmyM_kjLNcq-3" value="生长阶段" style="rounded=0;whiteSpace=wrap;html=1;" vertex="1" parent="1">
          <mxGeometry x="220" y="350" width="120" height="60" as="geometry" />
        </mxCell>
        <mxCell id="s2jjjpNIOZmyM_kjLNcq-5" value="饲料" style="rounded=0;whiteSpace=wrap;html=1;" vertex="1" parent="1">
          <mxGeometry x="205" y="470" width="120" height="60" as="geometry" />
        </mxCell>
        <mxCell id="s2jjjpNIOZmyM_kjLNcq-6" value="饲料剩余数量" style="rounded=0;whiteSpace=wrap;html=1;" vertex="1" parent="1">
          <mxGeometry x="290" y="640" width="120" height="60" as="geometry" />
        </mxCell>
        <mxCell id="s2jjjpNIOZmyM_kjLNcq-7" value="牛舍" style="rounded=0;whiteSpace=wrap;html=1;" vertex="1" parent="1">
          <mxGeometry x="430" y="250" width="120" height="60" as="geometry" />
        </mxCell>
        <mxCell id="s2jjjpNIOZmyM_kjLNcq-8" value="入厂时间" style="rounded=0;whiteSpace=wrap;html=1;" vertex="1" parent="1">
          <mxGeometry x="620" y="330" width="120" height="60" as="geometry" />
        </mxCell>
        <mxCell id="s2jjjpNIOZmyM_kjLNcq-9" value="评级" style="rounded=0;whiteSpace=wrap;html=1;" vertex="1" parent="1">
          <mxGeometry x="670" y="480" width="120" height="60" as="geometry" />
        </mxCell>
        <mxCell id="s2jjjpNIOZmyM_kjLNcq-10" value="配种状态" style="rounded=0;whiteSpace=wrap;html=1;" vertex="1" parent="1">
          <mxGeometry x="580" y="550" width="120" height="60" as="geometry" />
        </mxCell>
        <mxCell id="s2jjjpNIOZmyM_kjLNcq-17" style="rounded=0;orthogonalLoop=1;jettySize=auto;html=1;entryX=-0.005;entryY=0.649;entryDx=0;entryDy=0;entryPerimeter=0;" edge="1" parent="1" source="s2jjjpNIOZmyM_kjLNcq-1" target="s2jjjpNIOZmyM_kjLNcq-8">
          <mxGeometry relative="1" as="geometry" />
        </mxCell>
        <mxCell id="s2jjjpNIOZmyM_kjLNcq-26" style="rounded=0;orthogonalLoop=1;jettySize=auto;html=1;" edge="1" parent="1" source="s2jjjpNIOZmyM_kjLNcq-20" target="s2jjjpNIOZmyM_kjLNcq-22">
          <mxGeometry relative="1" as="geometry" />
        </mxCell>
        <mxCell id="s2jjjpNIOZmyM_kjLNcq-20" value="饲料" style="ellipse;whiteSpace=wrap;html=1;" vertex="1" parent="1">
          <mxGeometry x="-25" y="690" width="120" height="80" as="geometry" />
        </mxCell>
        <mxCell id="s2jjjpNIOZmyM_kjLNcq-21" value="id" style="rounded=0;whiteSpace=wrap;html=1;" vertex="1" parent="1">
          <mxGeometry x="-230" y="680" width="120" height="60" as="geometry" />
        </mxCell>
        <mxCell id="s2jjjpNIOZmyM_kjLNcq-22" value="饲料名" style="rounded=0;whiteSpace=wrap;html=1;" vertex="1" parent="1">
          <mxGeometry x="-200" y="800" width="120" height="60" as="geometry" />
        </mxCell>
        <mxCell id="s2jjjpNIOZmyM_kjLNcq-23" value="库存数量" style="rounded=0;whiteSpace=wrap;html=1;" vertex="1" parent="1">
          <mxGeometry x="-10" y="820" width="120" height="60" as="geometry" />
        </mxCell>
        <mxCell id="s2jjjpNIOZmyM_kjLNcq-24" style="rounded=0;orthogonalLoop=1;jettySize=auto;html=1;entryX=1.005;entryY=0.649;entryDx=0;entryDy=0;entryPerimeter=0;" edge="1" parent="1" source="s2jjjpNIOZmyM_kjLNcq-20" target="s2jjjpNIOZmyM_kjLNcq-21">
          <mxGeometry relative="1" as="geometry" />
        </mxCell>
        <mxCell id="s2jjjpNIOZmyM_kjLNcq-25" style="rounded=0;orthogonalLoop=1;jettySize=auto;html=1;entryX=0.583;entryY=-0.055;entryDx=0;entryDy=0;entryPerimeter=0;" edge="1" parent="1" source="s2jjjpNIOZmyM_kjLNcq-20" target="s2jjjpNIOZmyM_kjLNcq-23">
          <mxGeometry relative="1" as="geometry" />
        </mxCell>
        <mxCell id="s2jjjpNIOZmyM_kjLNcq-33" style="rounded=0;orthogonalLoop=1;jettySize=auto;html=1;entryX=1;entryY=0.75;entryDx=0;entryDy=0;" edge="1" parent="1" source="s2jjjpNIOZmyM_kjLNcq-28" target="s2jjjpNIOZmyM_kjLNcq-29">
          <mxGeometry relative="1" as="geometry" />
        </mxCell>
        <mxCell id="s2jjjpNIOZmyM_kjLNcq-34" style="rounded=0;orthogonalLoop=1;jettySize=auto;html=1;entryX=0;entryY=0.75;entryDx=0;entryDy=0;" edge="1" parent="1" source="s2jjjpNIOZmyM_kjLNcq-28" target="s2jjjpNIOZmyM_kjLNcq-32">
          <mxGeometry relative="1" as="geometry" />
        </mxCell>
        <mxCell id="s2jjjpNIOZmyM_kjLNcq-35" style="rounded=0;orthogonalLoop=1;jettySize=auto;html=1;entryX=1;entryY=0.5;entryDx=0;entryDy=0;" edge="1" parent="1" source="s2jjjpNIOZmyM_kjLNcq-28" target="s2jjjpNIOZmyM_kjLNcq-30">
          <mxGeometry relative="1" as="geometry" />
        </mxCell>
        <mxCell id="s2jjjpNIOZmyM_kjLNcq-36" style="rounded=0;orthogonalLoop=1;jettySize=auto;html=1;" edge="1" parent="1" source="s2jjjpNIOZmyM_kjLNcq-28" target="s2jjjpNIOZmyM_kjLNcq-31">
          <mxGeometry relative="1" as="geometry" />
        </mxCell>
        <mxCell id="s2jjjpNIOZmyM_kjLNcq-28" value="牛舍" style="ellipse;whiteSpace=wrap;html=1;" vertex="1" parent="1">
          <mxGeometry x="60" y="80" width="120" height="80" as="geometry" />
        </mxCell>
        <mxCell id="s2jjjpNIOZmyM_kjLNcq-29" value="id" style="rounded=0;whiteSpace=wrap;html=1;" vertex="1" parent="1">
          <mxGeometry x="-40" y="-20" width="120" height="60" as="geometry" />
        </mxCell>
        <mxCell id="s2jjjpNIOZmyM_kjLNcq-30" value="名称" style="rounded=0;whiteSpace=wrap;html=1;" vertex="1" parent="1">
          <mxGeometry x="-140" y="100" width="120" height="60" as="geometry" />
        </mxCell>
        <mxCell id="s2jjjpNIOZmyM_kjLNcq-31" value="容量" style="rounded=0;whiteSpace=wrap;html=1;" vertex="1" parent="1">
          <mxGeometry x="-100" y="200" width="120" height="60" as="geometry" />
        </mxCell>
        <mxCell id="s2jjjpNIOZmyM_kjLNcq-32" value="已用容量" style="rounded=0;whiteSpace=wrap;html=1;" vertex="1" parent="1">
          <mxGeometry x="190" y="-20" width="120" height="60" as="geometry" />
        </mxCell>
        <mxCell id="s2jjjpNIOZmyM_kjLNcq-37" value="" style="endArrow=none;html=1;rounded=0;entryX=0.417;entryY=0;entryDx=0;entryDy=0;entryPerimeter=0;exitX=1;exitY=0.5;exitDx=0;exitDy=0;" edge="1" parent="1" source="s2jjjpNIOZmyM_kjLNcq-38" target="s2jjjpNIOZmyM_kjLNcq-1">
          <mxGeometry width="50" height="50" relative="1" as="geometry">
            <mxPoint x="350" y="180" as="sourcePoint" />
            <mxPoint x="290" y="170" as="targetPoint" />
          </mxGeometry>
        </mxCell>
        <mxCell id="s2jjjpNIOZmyM_kjLNcq-38" value="居住" style="rhombus;whiteSpace=wrap;html=1;" vertex="1" parent="1">
          <mxGeometry x="230" y="140" width="80" height="80" as="geometry" />
        </mxCell>
        <mxCell id="s2jjjpNIOZmyM_kjLNcq-39" value="n" style="text;html=1;align=center;verticalAlign=middle;resizable=0;points=[];autosize=1;strokeColor=none;fillColor=none;" vertex="1" parent="1">
          <mxGeometry x="355" y="278" width="30" height="30" as="geometry" />
        </mxCell>
        <mxCell id="s2jjjpNIOZmyM_kjLNcq-42" value="" style="endArrow=none;html=1;rounded=0;entryX=0.063;entryY=0.612;entryDx=0;entryDy=0;entryPerimeter=0;exitX=1.014;exitY=0.584;exitDx=0;exitDy=0;exitPerimeter=0;" edge="1" parent="1" source="s2jjjpNIOZmyM_kjLNcq-28" target="s2jjjpNIOZmyM_kjLNcq-38">
          <mxGeometry width="50" height="50" relative="1" as="geometry">
            <mxPoint x="280" y="70" as="sourcePoint" />
            <mxPoint x="460" y="310" as="targetPoint" />
          </mxGeometry>
        </mxCell>
        <mxCell id="s2jjjpNIOZmyM_kjLNcq-43" value="1" style="text;html=1;align=center;verticalAlign=middle;resizable=0;points=[];autosize=1;strokeColor=none;fillColor=none;" vertex="1" parent="1">
          <mxGeometry x="175" y="168" width="30" height="30" as="geometry" />
        </mxCell>
        <mxCell id="s2jjjpNIOZmyM_kjLNcq-44" value="食用" style="rhombus;whiteSpace=wrap;html=1;" vertex="1" parent="1">
          <mxGeometry x="125" y="560" width="80" height="80" as="geometry" />
        </mxCell>
        <mxCell id="s2jjjpNIOZmyM_kjLNcq-45" value="" style="endArrow=none;html=1;rounded=0;entryX=0.032;entryY=0.723;entryDx=0;entryDy=0;entryPerimeter=0;exitX=1;exitY=0.5;exitDx=0;exitDy=0;" edge="1" parent="1" source="s2jjjpNIOZmyM_kjLNcq-44" target="s2jjjpNIOZmyM_kjLNcq-1">
          <mxGeometry width="50" height="50" relative="1" as="geometry">
            <mxPoint x="280" y="610" as="sourcePoint" />
            <mxPoint x="330" y="560" as="targetPoint" />
          </mxGeometry>
        </mxCell>
        <mxCell id="s2jjjpNIOZmyM_kjLNcq-46" value="n" style="text;html=1;align=center;verticalAlign=middle;resizable=0;points=[];autosize=1;strokeColor=none;fillColor=none;" vertex="1" parent="1">
          <mxGeometry x="375" y="498" width="30" height="30" as="geometry" />
        </mxCell>
        <mxCell id="s2jjjpNIOZmyM_kjLNcq-47" value="" style="endArrow=none;html=1;rounded=0;entryX=0;entryY=0.5;entryDx=0;entryDy=0;exitX=0.583;exitY=-0.013;exitDx=0;exitDy=0;exitPerimeter=0;" edge="1" parent="1" source="s2jjjpNIOZmyM_kjLNcq-20" target="s2jjjpNIOZmyM_kjLNcq-44">
          <mxGeometry width="50" height="50" relative="1" as="geometry">
            <mxPoint x="-90" y="661" as="sourcePoint" />
            <mxPoint x="149" y="539" as="targetPoint" />
          </mxGeometry>
        </mxCell>
        <mxCell id="s2jjjpNIOZmyM_kjLNcq-48" value="m" style="text;html=1;align=center;verticalAlign=middle;resizable=0;points=[];autosize=1;strokeColor=none;fillColor=none;" vertex="1" parent="1">
          <mxGeometry x="25" y="618" width="30" height="30" as="geometry" />
        </mxCell>
        <mxCell id="s2jjjpNIOZmyM_kjLNcq-54" style="rounded=0;orthogonalLoop=1;jettySize=auto;html=1;entryX=1;entryY=0.5;entryDx=0;entryDy=0;" edge="1" parent="1" source="s2jjjpNIOZmyM_kjLNcq-49" target="s2jjjpNIOZmyM_kjLNcq-51">
          <mxGeometry relative="1" as="geometry" />
        </mxCell>
        <mxCell id="s2jjjpNIOZmyM_kjLNcq-55" style="rounded=0;orthogonalLoop=1;jettySize=auto;html=1;entryX=1;entryY=0.5;entryDx=0;entryDy=0;" edge="1" parent="1" source="s2jjjpNIOZmyM_kjLNcq-49" target="s2jjjpNIOZmyM_kjLNcq-52">
          <mxGeometry relative="1" as="geometry" />
        </mxCell>
        <mxCell id="s2jjjpNIOZmyM_kjLNcq-49" value="配种记录" style="ellipse;whiteSpace=wrap;html=1;" vertex="1" parent="1">
          <mxGeometry x="-230" y="400" width="120" height="80" as="geometry" />
        </mxCell>
        <mxCell id="s2jjjpNIOZmyM_kjLNcq-50" value="id" style="rounded=0;whiteSpace=wrap;html=1;" vertex="1" parent="1">
          <mxGeometry x="-350" y="300" width="120" height="60" as="geometry" />
        </mxCell>
        <mxCell id="s2jjjpNIOZmyM_kjLNcq-51" value="奶牛编号" style="rounded=0;whiteSpace=wrap;html=1;" vertex="1" parent="1">
          <mxGeometry x="-450" y="410" width="120" height="60" as="geometry" />
        </mxCell>
        <mxCell id="s2jjjpNIOZmyM_kjLNcq-52" value="配种时间" style="rounded=0;whiteSpace=wrap;html=1;" vertex="1" parent="1">
          <mxGeometry x="-360" y="520" width="120" height="60" as="geometry" />
        </mxCell>
        <mxCell id="s2jjjpNIOZmyM_kjLNcq-53" style="rounded=0;orthogonalLoop=1;jettySize=auto;html=1;entryX=1.005;entryY=0.668;entryDx=0;entryDy=0;entryPerimeter=0;" edge="1" parent="1" source="s2jjjpNIOZmyM_kjLNcq-49" target="s2jjjpNIOZmyM_kjLNcq-50">
          <mxGeometry relative="1" as="geometry" />
        </mxCell>
        <mxCell id="s2jjjpNIOZmyM_kjLNcq-56" value="记录" style="rhombus;whiteSpace=wrap;html=1;" vertex="1" parent="1">
          <mxGeometry x="-25" y="400" width="80" height="80" as="geometry" />
        </mxCell>
        <mxCell id="s2jjjpNIOZmyM_kjLNcq-58" value="" style="endArrow=none;html=1;rounded=0;entryX=0.005;entryY=0.362;entryDx=0;entryDy=0;entryPerimeter=0;exitX=1;exitY=0.5;exitDx=0;exitDy=0;" edge="1" parent="1" source="s2jjjpNIOZmyM_kjLNcq-56" target="s2jjjpNIOZmyM_kjLNcq-1">
          <mxGeometry width="50" height="50" relative="1" as="geometry">
            <mxPoint x="130" y="460" as="sourcePoint" />
            <mxPoint x="180" y="410" as="targetPoint" />
          </mxGeometry>
        </mxCell>
        <mxCell id="s2jjjpNIOZmyM_kjLNcq-59" value="1" style="text;html=1;align=center;verticalAlign=middle;resizable=0;points=[];autosize=1;strokeColor=none;fillColor=none;" vertex="1" parent="1">
          <mxGeometry x="155" y="408" width="30" height="30" as="geometry" />
        </mxCell>
        <mxCell id="s2jjjpNIOZmyM_kjLNcq-60" value="" style="endArrow=none;html=1;rounded=0;entryX=0;entryY=0.431;entryDx=0;entryDy=0;entryPerimeter=0;exitX=1;exitY=0.5;exitDx=0;exitDy=0;" edge="1" parent="1" source="s2jjjpNIOZmyM_kjLNcq-49" target="s2jjjpNIOZmyM_kjLNcq-56">
          <mxGeometry width="50" height="50" relative="1" as="geometry">
            <mxPoint x="-110" y="430" as="sourcePoint" />
            <mxPoint x="-60" y="380" as="targetPoint" />
          </mxGeometry>
        </mxCell>
        <mxCell id="s2jjjpNIOZmyM_kjLNcq-61" value="n" style="text;html=1;align=center;verticalAlign=middle;resizable=0;points=[];autosize=1;strokeColor=none;fillColor=none;" vertex="1" parent="1">
          <mxGeometry x="-105" y="408" width="30" height="30" as="geometry" />
        </mxCell>
        <mxCell id="s2jjjpNIOZmyM_kjLNcq-70" style="rounded=0;orthogonalLoop=1;jettySize=auto;html=1;" edge="1" parent="1" source="s2jjjpNIOZmyM_kjLNcq-62" target="s2jjjpNIOZmyM_kjLNcq-66">
          <mxGeometry relative="1" as="geometry" />
        </mxCell>
        <mxCell id="s2jjjpNIOZmyM_kjLNcq-71" style="rounded=0;orthogonalLoop=1;jettySize=auto;html=1;entryX=0;entryY=0.5;entryDx=0;entryDy=0;" edge="1" parent="1" source="s2jjjpNIOZmyM_kjLNcq-62" target="s2jjjpNIOZmyM_kjLNcq-67">
          <mxGeometry relative="1" as="geometry" />
        </mxCell>
        <mxCell id="s2jjjpNIOZmyM_kjLNcq-73" style="rounded=0;orthogonalLoop=1;jettySize=auto;html=1;" edge="1" parent="1" source="s2jjjpNIOZmyM_kjLNcq-62">
          <mxGeometry relative="1" as="geometry">
            <mxPoint x="1180" y="280" as="targetPoint" />
          </mxGeometry>
        </mxCell>
        <mxCell id="s2jjjpNIOZmyM_kjLNcq-62" value="挤奶记录" style="ellipse;whiteSpace=wrap;html=1;" vertex="1" parent="1">
          <mxGeometry x="1030" y="380" width="120" height="80" as="geometry" />
        </mxCell>
        <mxCell id="s2jjjpNIOZmyM_kjLNcq-63" value="id" style="rounded=0;whiteSpace=wrap;html=1;" vertex="1" parent="1">
          <mxGeometry x="1120" y="218" width="120" height="60" as="geometry" />
        </mxCell>
        <mxCell id="s2jjjpNIOZmyM_kjLNcq-65" value="奶牛编号" style="rounded=0;whiteSpace=wrap;html=1;" vertex="1" parent="1">
          <mxGeometry x="950" y="220" width="120" height="60" as="geometry" />
        </mxCell>
        <mxCell id="s2jjjpNIOZmyM_kjLNcq-66" value="时间" style="rounded=0;whiteSpace=wrap;html=1;" vertex="1" parent="1">
          <mxGeometry x="1240" y="350" width="120" height="60" as="geometry" />
        </mxCell>
        <mxCell id="s2jjjpNIOZmyM_kjLNcq-67" value="挤奶量" style="rounded=0;whiteSpace=wrap;html=1;" vertex="1" parent="1">
          <mxGeometry x="1240" y="470" width="120" height="60" as="geometry" />
        </mxCell>
        <mxCell id="s2jjjpNIOZmyM_kjLNcq-68" value="奶质量" style="rounded=0;whiteSpace=wrap;html=1;" vertex="1" parent="1">
          <mxGeometry x="1130" y="560" width="120" height="60" as="geometry" />
        </mxCell>
        <mxCell id="s2jjjpNIOZmyM_kjLNcq-69" style="rounded=0;orthogonalLoop=1;jettySize=auto;html=1;entryX=0.56;entryY=1.038;entryDx=0;entryDy=0;entryPerimeter=0;" edge="1" parent="1" source="s2jjjpNIOZmyM_kjLNcq-62" target="s2jjjpNIOZmyM_kjLNcq-65">
          <mxGeometry relative="1" as="geometry" />
        </mxCell>
        <mxCell id="s2jjjpNIOZmyM_kjLNcq-72" style="rounded=0;orthogonalLoop=1;jettySize=auto;html=1;entryX=0.412;entryY=-0.018;entryDx=0;entryDy=0;entryPerimeter=0;" edge="1" parent="1" source="s2jjjpNIOZmyM_kjLNcq-62" target="s2jjjpNIOZmyM_kjLNcq-68">
          <mxGeometry relative="1" as="geometry" />
        </mxCell>
        <mxCell id="s2jjjpNIOZmyM_kjLNcq-74" value="记录" style="rhombus;whiteSpace=wrap;html=1;" vertex="1" parent="1">
          <mxGeometry x="820" y="400" width="80" height="80" as="geometry" />
        </mxCell>
        <mxCell id="s2jjjpNIOZmyM_kjLNcq-75" value="" style="endArrow=none;html=1;rounded=0;exitX=1;exitY=0.5;exitDx=0;exitDy=0;entryX=0;entryY=0.5;entryDx=0;entryDy=0;" edge="1" parent="1" source="s2jjjpNIOZmyM_kjLNcq-74" target="s2jjjpNIOZmyM_kjLNcq-62">
          <mxGeometry width="50" height="50" relative="1" as="geometry">
            <mxPoint x="930" y="430" as="sourcePoint" />
            <mxPoint x="980" y="380" as="targetPoint" />
          </mxGeometry>
        </mxCell>
        <mxCell id="s2jjjpNIOZmyM_kjLNcq-76" value="" style="endArrow=none;html=1;rounded=0;entryX=0;entryY=0.5;entryDx=0;entryDy=0;exitX=0.958;exitY=0.32;exitDx=0;exitDy=0;exitPerimeter=0;" edge="1" parent="1" source="s2jjjpNIOZmyM_kjLNcq-1" target="s2jjjpNIOZmyM_kjLNcq-74">
          <mxGeometry width="50" height="50" relative="1" as="geometry">
            <mxPoint x="770" y="420" as="sourcePoint" />
            <mxPoint x="820" y="370" as="targetPoint" />
          </mxGeometry>
        </mxCell>
        <mxCell id="s2jjjpNIOZmyM_kjLNcq-82" style="rounded=0;orthogonalLoop=1;jettySize=auto;html=1;entryX=1;entryY=0.5;entryDx=0;entryDy=0;" edge="1" parent="1" source="s2jjjpNIOZmyM_kjLNcq-77" target="s2jjjpNIOZmyM_kjLNcq-78">
          <mxGeometry relative="1" as="geometry" />
        </mxCell>
        <mxCell id="s2jjjpNIOZmyM_kjLNcq-83" style="rounded=0;orthogonalLoop=1;jettySize=auto;html=1;entryX=1;entryY=0.5;entryDx=0;entryDy=0;" edge="1" parent="1" source="s2jjjpNIOZmyM_kjLNcq-77" target="s2jjjpNIOZmyM_kjLNcq-81">
          <mxGeometry relative="1" as="geometry" />
        </mxCell>
        <mxCell id="s2jjjpNIOZmyM_kjLNcq-84" style="rounded=0;orthogonalLoop=1;jettySize=auto;html=1;" edge="1" parent="1" source="s2jjjpNIOZmyM_kjLNcq-77" target="s2jjjpNIOZmyM_kjLNcq-80">
          <mxGeometry relative="1" as="geometry" />
        </mxCell>
        <mxCell id="s2jjjpNIOZmyM_kjLNcq-85" style="rounded=0;orthogonalLoop=1;jettySize=auto;html=1;entryX=0;entryY=0.5;entryDx=0;entryDy=0;" edge="1" parent="1" source="s2jjjpNIOZmyM_kjLNcq-77" target="s2jjjpNIOZmyM_kjLNcq-79">
          <mxGeometry relative="1" as="geometry" />
        </mxCell>
        <mxCell id="s2jjjpNIOZmyM_kjLNcq-77" value="使用者" style="ellipse;whiteSpace=wrap;html=1;" vertex="1" parent="1">
          <mxGeometry x="640" width="120" height="80" as="geometry" />
        </mxCell>
        <mxCell id="s2jjjpNIOZmyM_kjLNcq-78" value="id" style="rounded=0;whiteSpace=wrap;html=1;" vertex="1" parent="1">
          <mxGeometry x="500" y="-90" width="120" height="60" as="geometry" />
        </mxCell>
        <mxCell id="s2jjjpNIOZmyM_kjLNcq-79" value="姓名" style="rounded=0;whiteSpace=wrap;html=1;" vertex="1" parent="1">
          <mxGeometry x="790" y="-90" width="120" height="60" as="geometry" />
        </mxCell>
        <mxCell id="s2jjjpNIOZmyM_kjLNcq-80" value="密码" style="rounded=0;whiteSpace=wrap;html=1;" vertex="1" parent="1">
          <mxGeometry x="820" y="40" width="120" height="60" as="geometry" />
        </mxCell>
        <mxCell id="s2jjjpNIOZmyM_kjLNcq-81" value="身份" style="rounded=0;whiteSpace=wrap;html=1;" vertex="1" parent="1">
          <mxGeometry x="425" width="120" height="60" as="geometry" />
        </mxCell>
        <mxCell id="s2jjjpNIOZmyM_kjLNcq-86" value="管理" style="rhombus;whiteSpace=wrap;html=1;" vertex="1" parent="1">
          <mxGeometry x="590" y="160" width="80" height="80" as="geometry" />
        </mxCell>
        <mxCell id="s2jjjpNIOZmyM_kjLNcq-88" value="" style="endArrow=none;html=1;rounded=0;entryX=0.5;entryY=1;entryDx=0;entryDy=0;exitX=0.5;exitY=0;exitDx=0;exitDy=0;" edge="1" parent="1" source="s2jjjpNIOZmyM_kjLNcq-86" target="s2jjjpNIOZmyM_kjLNcq-77">
          <mxGeometry width="50" height="50" relative="1" as="geometry">
            <mxPoint x="680" y="160" as="sourcePoint" />
            <mxPoint x="730" y="110" as="targetPoint" />
          </mxGeometry>
        </mxCell>
        <mxCell id="s2jjjpNIOZmyM_kjLNcq-89" value="" style="endArrow=none;html=1;rounded=0;entryX=0.5;entryY=1;entryDx=0;entryDy=0;exitX=0.699;exitY=-0.027;exitDx=0;exitDy=0;exitPerimeter=0;" edge="1" parent="1" source="s2jjjpNIOZmyM_kjLNcq-1" target="s2jjjpNIOZmyM_kjLNcq-86">
          <mxGeometry width="50" height="50" relative="1" as="geometry">
            <mxPoint x="730" y="260" as="sourcePoint" />
            <mxPoint x="780" y="210" as="targetPoint" />
          </mxGeometry>
        </mxCell>
        <mxCell id="s2jjjpNIOZmyM_kjLNcq-90" value="1" style="text;html=1;align=center;verticalAlign=middle;resizable=0;points=[];autosize=1;strokeColor=none;fillColor=none;" vertex="1" parent="1">
          <mxGeometry x="975" y="368" width="30" height="30" as="geometry" />
        </mxCell>
        <mxCell id="s2jjjpNIOZmyM_kjLNcq-91" value="n" style="text;html=1;align=center;verticalAlign=middle;resizable=0;points=[];autosize=1;strokeColor=none;fillColor=none;" vertex="1" parent="1">
          <mxGeometry x="585" y="408" width="30" height="30" as="geometry" />
        </mxCell>
        <mxCell id="s2jjjpNIOZmyM_kjLNcq-93" value="n" style="text;html=1;align=center;verticalAlign=middle;resizable=0;points=[];autosize=1;strokeColor=none;fillColor=none;" vertex="1" parent="1">
          <mxGeometry x="635" y="78" width="30" height="30" as="geometry" />
        </mxCell>
        <mxCell id="s2jjjpNIOZmyM_kjLNcq-94" value="m" style="text;html=1;align=center;verticalAlign=middle;resizable=0;points=[];autosize=1;strokeColor=none;fillColor=none;" vertex="1" parent="1">
          <mxGeometry x="515" y="338" width="30" height="30" as="geometry" />
        </mxCell>
      </root>
    </mxGraphModel>
  </diagram>
</mxfile>
